<svg width="1016" height="713" viewBox="0 0 1016 713" fill="none" xmlns="http://www.w3.org/2000/svg">
<path d="M249.216 324.875C200.821 277.233 180.381 227.532 191.66 184.926C206.135 130.251 270.438 92.4481 368.082 81.21L368.443 84.3462C272.158 95.4272 208.836 132.382 194.712 185.734C183.735 227.197 203.878 275.813 251.43 322.626L249.216 324.875Z" fill="#F0F0F0"/>
<path d="M716.144 493.986C655.744 493.986 590.109 485.011 524.915 467.751C444.294 446.408 370.373 414.192 311.144 374.585L312.897 371.962C371.842 411.377 445.435 443.445 525.723 464.699C598.278 483.909 671.376 492.809 737.09 490.46L737.204 493.613C730.264 493.863 723.244 493.987 716.144 493.986Z" fill="#F0F0F0"/>
<path d="M854.708 474.138L853.697 471.148C907.716 452.883 941.503 423.462 951.405 386.061C963.992 338.515 936.647 283.342 874.407 230.703C811.85 177.797 721.641 133.899 620.394 107.096L621.202 104.044C722.891 130.965 813.539 175.091 876.445 228.294C939.668 281.763 967.373 338.079 954.457 386.868C944.271 425.342 909.778 455.519 854.708 474.138Z" fill="#F0F0F0"/>
<path d="M358.685 495.305C240.003 442.668 148.55 374.378 101.173 303.014L103.802 301.268C150.852 372.138 241.825 440.024 359.964 492.42L358.685 495.305Z" fill="#F0F0F0"/>
<path d="M775.961 586.494C763.719 586.494 751.269 586.221 738.609 585.675L738.745 582.521C833.22 586.612 916.576 575.306 979.82 549.819L981 552.748C925.831 574.977 855.514 586.494 775.961 586.494Z" fill="#F0F0F0"/>
<path d="M707.101 84.0403C687.485 77.6537 667.308 71.7071 647.131 66.3654C531.02 35.6269 416.883 24.7132 317.052 34.8101L316.735 31.6693C416.937 21.5392 531.466 32.4791 647.938 63.3139C668.172 68.671 688.406 74.6345 708.078 81.0396L707.101 84.0403Z" fill="#F0F0F0"/>
<path d="M175.043 329.609C126.648 281.968 106.208 232.266 117.487 189.661C131.962 134.986 196.265 97.1827 293.909 85.9446L294.27 89.0808C197.985 100.162 134.663 137.117 120.539 190.468C109.562 231.932 129.705 280.548 177.257 327.361L175.043 329.609Z" fill="#F0F0F0"/>
<path d="M641.971 498.721C581.571 498.721 515.936 489.745 450.742 472.485C370.12 451.142 296.199 418.926 236.97 379.32L238.724 376.697C297.668 416.111 371.262 448.18 451.549 469.434C524.104 488.643 597.203 497.543 662.916 495.194L663.031 498.348C656.091 498.597 649.071 498.722 641.971 498.721Z" fill="#F0F0F0"/>
<path d="M780.535 478.872L779.524 475.882C833.543 457.618 867.33 428.196 877.232 390.796C889.819 343.25 862.474 288.076 800.234 235.438C737.677 182.532 647.468 138.634 546.221 111.831L547.029 108.779C648.718 135.7 739.366 179.826 802.271 233.028C865.495 286.497 893.2 342.814 880.284 391.603C870.098 430.077 835.605 460.253 780.535 478.872Z" fill="#F0F0F0"/>
<path d="M284.512 500.04C165.83 447.403 74.3769 379.113 27 307.749L29.6293 306.003C76.6786 376.873 167.652 444.758 285.791 497.155L284.512 500.04Z" fill="#F0F0F0"/>
<path d="M701.788 591.23C689.546 591.23 677.096 590.956 664.436 590.41L664.572 587.257C759.046 591.347 842.403 580.041 905.646 554.555L906.827 557.483C851.658 579.713 781.341 591.23 701.788 591.23Z" fill="#F0F0F0"/>
<path d="M632.927 88.7749C613.311 82.3883 593.135 76.4418 572.958 71.1001C456.847 40.3616 342.71 29.4478 242.879 39.5448L242.562 36.4039C342.764 26.2738 457.293 37.2137 573.765 68.0486C593.999 73.4057 614.233 79.3692 633.904 85.7743L632.927 88.7749Z" fill="#F0F0F0"/>
<path d="M80.7978 245.07C103.479 219.639 139.66 204.14 172.448 213.418C142.2 234.824 120.498 266.239 111.183 302.106C107.64 315.951 105.142 331.719 93.6273 340.184C86.4628 345.452 76.9698 346.71 68.159 345.511C59.3478 344.311 51.0165 340.884 42.7977 337.489L40.5862 337.68C46.9445 304.203 58.1162 270.5 80.7978 245.07Z" fill="#F2F2F2"/>
<path d="M172.348 214.126C144.935 220.764 120.31 235.87 101.971 257.299C97.9415 261.842 94.653 266.992 92.2268 272.559C90.0387 278.059 89.3631 284.044 90.2704 289.893C91.0068 295.364 92.3935 300.874 91.7873 306.428C91.4348 309.267 90.4862 311.999 89.0038 314.445C87.5214 316.891 85.5387 318.996 83.1856 320.622C77.4278 324.827 70.5027 326.712 63.6665 328.319C56.0762 330.105 48.164 331.839 41.9767 336.883C41.227 337.494 40.3225 336.295 41.071 335.685C51.8358 326.909 66.7966 328.036 78.707 321.661C84.2645 318.687 88.9593 314.019 90.1008 307.615C91.099 302.014 89.6738 296.331 88.8803 290.798C87.9116 285.105 88.3516 279.262 90.1618 273.778C92.2967 268.105 95.3813 262.837 99.2837 258.199C107.903 247.618 118.132 238.458 129.596 231.054C142.634 222.531 157.033 216.302 172.171 212.635C173.108 212.408 173.279 213.901 172.348 214.126Z" fill="white"/>
<path d="M107.47 250.051C104.292 246.486 102.486 241.907 102.372 237.133C102.258 232.359 103.845 227.7 106.85 223.987C107.46 223.238 108.653 224.152 108.042 224.902C105.238 228.353 103.76 232.694 103.874 237.139C103.989 241.585 105.689 245.843 108.668 249.145C109.315 249.863 108.113 250.765 107.47 250.051Z" fill="white"/>
<path d="M89.5313 287.168C99.2722 287.815 108.899 284.767 116.492 278.631C117.244 278.023 118.149 279.222 117.398 279.829C109.484 286.2 99.4597 289.351 89.3246 288.656C88.3587 288.589 88.5706 287.102 89.5313 287.168Z" fill="white"/>
<path d="M142.971 224.493C143.913 226.129 145.247 227.505 146.852 228.498C148.457 229.49 150.284 230.069 152.168 230.181C153.135 230.236 152.922 231.723 151.962 231.669C149.881 231.535 147.864 230.894 146.088 229.801C144.312 228.708 142.83 227.197 141.773 225.399C141.659 225.238 141.611 225.04 141.638 224.844C141.665 224.649 141.766 224.471 141.919 224.347C142.079 224.228 142.278 224.177 142.475 224.204C142.672 224.231 142.851 224.335 142.971 224.493L142.971 224.493Z" fill="white"/>
<path d="M218.991 318.988C218.387 318.971 217.782 318.954 217.17 318.947C209.044 318.761 200.916 319.235 192.866 320.365C192.242 320.442 191.611 320.53 190.991 320.626C171.626 323.555 152.974 330.054 135.982 339.793C129.224 343.674 122.771 348.064 116.679 352.924C108.266 359.637 99.6781 367.585 89.8289 371.025C88.8053 371.396 87.7598 371.703 86.6983 371.944L40.9906 340.364C40.9227 340.24 40.8472 340.126 40.7788 340.002L38.8962 338.824C39.1929 338.552 39.5065 338.276 39.8032 338.003C39.9746 337.844 40.1563 337.692 40.3277 337.533C40.4452 337.43 40.5633 337.326 40.6634 337.226C40.7024 337.191 40.7419 337.157 40.7737 337.133C40.8739 337.033 40.9775 336.95 41.0703 336.86C42.8188 335.31 44.5812 333.77 46.3576 332.24C46.3648 332.229 46.3648 332.229 46.3822 332.226C59.8061 320.435 74.5814 310.277 90.3983 301.967C90.8737 301.725 91.3557 301.473 91.852 301.245C98.9926 297.663 106.414 294.67 114.042 292.296C118.224 291.01 122.467 289.937 126.757 289.079C137.845 286.886 149.21 286.451 160.433 287.789C182.807 290.46 204.078 300.257 217.945 317.649C218.299 318.094 218.644 318.532 218.991 318.988Z" fill="#F2F2F2"/>
<path d="M218.488 319.496C192.604 308.291 163.848 305.527 136.303 311.596C130.35 312.797 124.624 314.929 119.335 317.913C114.277 320.987 110.134 325.359 107.337 330.575C104.631 335.387 102.421 340.621 98.5925 344.691C96.602 346.745 94.1998 348.355 91.5435 349.416C88.8871 350.477 86.0365 350.964 83.1786 350.846C76.05 350.736 69.3859 348.072 62.9595 345.239C55.8242 342.095 48.4628 338.716 40.4855 339.018C39.519 339.055 39.5186 337.553 40.4837 337.516C54.3628 336.99 65.6297 346.897 78.9773 348.978C85.2056 349.949 91.7642 349.049 96.5316 344.623C100.7 340.752 102.984 335.356 105.682 330.461C108.336 325.332 112.205 320.932 116.952 317.643C122.072 314.399 127.707 312.05 133.615 310.696C146.867 307.437 160.55 306.281 174.161 307.272C189.702 308.317 204.95 312.012 219.245 318.199C220.129 318.582 219.367 319.877 218.488 319.496H218.488Z" fill="white"/>
<path d="M145.057 309.12C144.666 304.361 145.98 299.617 148.763 295.737C151.547 291.856 155.62 289.092 160.253 287.937C161.192 287.706 161.594 289.154 160.654 289.385C156.337 290.452 152.544 293.028 149.959 296.646C147.375 300.265 146.168 304.689 146.559 309.118C146.642 310.081 145.14 310.077 145.057 309.12Z" fill="white"/>
<path d="M108.387 327.956C115.775 334.337 125.297 337.699 135.054 337.372C136.02 337.338 136.021 338.84 135.056 338.874C124.902 339.195 115 335.676 107.327 329.019C106.596 328.384 107.66 327.324 108.387 327.956V327.956Z" fill="white"/>
<path d="M188.79 310.087C188.557 311.961 188.794 313.862 189.478 315.621C190.162 317.38 191.272 318.942 192.709 320.166C193.447 320.792 192.382 321.851 191.648 321.229C190.067 319.87 188.843 318.143 188.083 316.201C187.323 314.259 187.05 312.161 187.288 310.089C187.294 309.892 187.375 309.705 187.514 309.565C187.653 309.425 187.841 309.344 188.038 309.337C188.237 309.338 188.427 309.417 188.568 309.558C188.709 309.698 188.788 309.889 188.79 310.087H188.79Z" fill="white"/>
<path d="M969.543 453.538C956.728 421.963 927.862 395.205 893.863 392.923C915.157 423.251 925.037 460.132 921.756 497.043C920.439 511.274 917.493 526.964 925.492 538.807C930.47 546.176 938.987 550.552 947.689 552.383C956.391 554.215 965.389 553.788 974.271 553.352L976.29 554.276C981.553 520.609 982.358 485.112 969.543 453.538Z" fill="#F2F2F2"/>
<path d="M893.719 393.623C917.306 409.088 935.422 431.592 945.491 457.939C947.76 463.572 949.126 469.527 949.54 475.586C949.752 481.501 948.377 487.365 945.557 492.569C943.024 497.474 939.866 502.198 938.571 507.633C937.949 510.424 937.924 513.316 938.498 516.118C939.072 518.92 940.232 521.57 941.901 523.892C945.911 529.787 951.8 533.89 957.698 537.702C964.246 541.934 971.116 546.227 975.247 553.057C975.748 553.885 977.003 553.059 976.503 552.233C969.314 540.349 954.845 536.382 945.77 526.375C941.536 521.706 938.683 515.732 939.76 509.317C940.702 503.707 943.955 498.833 946.562 493.888C949.387 488.852 950.937 483.201 951.075 477.428C950.971 471.368 949.836 465.369 947.72 459.69C943.159 446.827 936.604 434.762 928.295 423.935C918.88 411.527 907.412 400.82 894.387 392.278C893.581 391.75 892.918 393.099 893.719 393.623V393.623Z" fill="white"/>
<path d="M942.748 449.265C946.939 446.975 950.18 443.27 951.892 438.812C953.603 434.354 953.674 429.432 952.092 424.926C951.769 424.015 950.339 424.475 950.662 425.387C952.143 429.58 952.077 434.164 950.474 438.313C948.872 442.461 945.839 445.9 941.924 448.009C941.074 448.468 941.903 449.721 942.748 449.265Z" fill="white"/>
<path d="M947.168 490.252C937.776 487.587 929.734 481.481 924.645 473.15C924.141 472.324 922.886 473.149 923.389 473.974C928.701 482.633 937.084 488.971 946.863 491.722C947.795 491.984 948.095 490.512 947.168 490.252V490.252Z" fill="white"/>
<path d="M917.902 413.261C916.465 414.485 914.747 415.332 912.901 415.728C911.055 416.123 909.141 416.054 907.328 415.527C906.4 415.254 906.101 416.726 907.023 416.997C909.028 417.571 911.143 417.645 913.183 417.212C915.223 416.78 917.126 415.854 918.726 414.517C918.888 414.403 919 414.232 919.04 414.039C919.08 413.846 919.045 413.645 918.942 413.477C918.832 413.311 918.661 413.195 918.466 413.155C918.272 413.114 918.069 413.153 917.902 413.261H917.902Z" fill="white"/>
<path d="M814.848 477.356C842.993 475.503 871.005 482.564 894.908 497.538C900.111 500.67 904.787 504.603 908.765 509.191C912.496 513.786 914.929 519.296 915.81 525.149C916.741 530.59 917.064 536.263 919.301 541.382C920.485 543.986 922.207 546.31 924.352 548.202C926.497 550.093 929.018 551.51 931.75 552.359C938.501 554.652 945.673 554.382 952.677 553.875C960.454 553.312 968.523 552.603 975.935 555.569C976.833 555.929 977.338 554.514 976.441 554.155C963.546 548.995 949.605 554.539 936.334 552.013C930.142 550.834 924.267 547.782 921.265 542.011C918.64 536.964 918.302 531.114 917.407 525.597C916.631 519.875 914.466 514.43 911.1 509.737C907.369 504.961 902.851 500.855 897.742 497.594C886.356 490.07 873.858 484.383 860.705 480.741C845.717 476.502 830.114 474.858 814.572 475.88C813.61 475.943 813.893 477.419 814.848 477.356V477.356Z" fill="white"/>
<path d="M887.495 492.264C889.463 487.912 889.82 483.003 888.502 478.413C887.185 473.823 884.278 469.85 880.302 467.205C879.496 466.673 878.63 467.901 879.438 468.434C883.145 470.89 885.852 474.591 887.07 478.868C888.288 483.145 887.937 487.716 886.081 491.757C885.679 492.636 887.095 493.137 887.495 492.264L887.495 492.264Z" fill="white"/>
<path d="M915.701 522.329C906.598 525.855 896.5 525.822 887.421 522.234C886.521 521.878 886.016 523.292 886.914 523.648C896.369 527.364 906.878 527.378 916.342 523.687C917.244 523.334 916.598 521.978 915.701 522.329V522.329Z" fill="white"/>
<path d="M845.98 478.476C845.57 480.318 844.708 482.03 843.473 483.457C842.237 484.884 840.667 485.982 838.902 486.652C837.996 486.992 838.644 488.348 839.544 488.009C841.49 487.26 843.223 486.046 844.591 484.472C845.96 482.899 846.922 481.014 847.394 478.983C847.455 478.795 847.442 478.591 847.357 478.413C847.273 478.234 847.124 478.095 846.941 478.022C846.753 477.956 846.547 477.967 846.367 478.052C846.187 478.137 846.048 478.289 845.98 478.476V478.476Z" fill="white"/>
<path d="M294.85 210.854C301.823 210.854 307.475 205.201 307.475 198.228C307.475 191.256 301.823 185.603 294.85 185.603C287.877 185.603 282.225 191.256 282.225 198.228C282.225 205.201 287.877 210.854 294.85 210.854Z" fill="#F2F2F2"/>
<path d="M294.337 68.7766C301.309 68.7766 306.962 63.1241 306.962 56.1513C306.962 49.1786 301.309 43.5261 294.337 43.5261C287.364 43.5261 281.711 49.1786 281.711 56.1513C281.711 63.1241 287.364 68.7766 294.337 68.7766Z" fill="#E6E6E6"/>
<path d="M761.815 168.892H757.915V61.915C757.915 45.4941 751.392 29.7458 739.781 18.1345C728.169 6.52317 712.421 8.07648e-09 696 8.07648e-09H469.35C461.219 -0.000131315 453.168 1.60122 445.656 4.71262C438.144 7.82401 431.319 12.3845 425.569 18.1338C419.82 23.883 415.259 30.7084 412.147 38.2202C409.036 45.7321 407.434 53.7832 407.434 61.914V648.798C407.434 665.219 413.957 680.967 425.569 692.579C437.18 704.19 452.928 710.713 469.349 710.713H695.997C712.418 710.713 728.166 704.19 739.778 692.579C751.389 680.967 757.912 665.219 757.912 648.798V245.04H761.812L761.815 168.892Z" fill="#3F3D56"/>
<path d="M745.215 57.7679V652.943C745.213 665.393 740.267 677.333 731.465 686.137C722.662 694.942 710.723 699.89 698.273 699.895H466.973C454.518 699.897 442.572 694.951 433.763 686.146C424.955 677.341 420.004 665.398 420 652.943V57.7679C420.004 45.3134 424.954 33.3703 433.763 24.5656C442.571 15.7608 454.516 10.8153 466.971 10.8169H495.029C493.651 14.2049 493.127 17.8794 493.502 21.5175C493.877 25.1556 495.14 28.6459 497.18 31.6816C499.22 34.7173 501.974 37.2055 505.201 38.9274C508.427 40.6493 512.028 41.5523 515.685 41.5569H647.553C651.21 41.5523 654.811 40.6493 658.037 38.9274C661.264 37.2055 664.018 34.7173 666.058 31.6816C668.098 28.6459 669.361 25.1556 669.736 21.5175C670.111 17.8794 669.587 14.2049 668.209 10.8169H698.264C710.714 10.819 722.654 15.7651 731.458 24.5677C740.262 33.3703 745.21 45.3089 745.215 57.7589V57.7679Z" fill="white"/>
<path d="M582.565 296.694C635.896 296.694 679.13 253.46 679.13 200.129C679.13 146.798 635.896 103.564 582.565 103.564C529.234 103.564 486 146.798 486 200.129C486 253.46 529.234 296.694 582.565 296.694Z" fill="#FF0000"/>
<path d="M687.881 400.596H482.344C481.335 400.595 480.368 400.194 479.654 399.48C478.94 398.767 478.539 397.799 478.538 396.79V345.806C478.539 344.797 478.941 343.83 479.654 343.116C480.368 342.403 481.335 342.001 482.344 342H687.881C688.89 342.001 689.857 342.403 690.571 343.116C691.284 343.83 691.686 344.797 691.687 345.806V396.791C691.686 397.8 691.284 398.767 690.571 399.481C689.857 400.194 688.89 400.596 687.881 400.597V400.596ZM482.344 343.522C481.738 343.523 481.158 343.763 480.73 344.192C480.301 344.62 480.061 345.2 480.06 345.806V396.791C480.061 397.397 480.301 397.977 480.73 398.405C481.158 398.834 481.738 399.074 482.344 399.075H687.881C688.487 399.074 689.067 398.834 689.496 398.405C689.924 397.977 690.165 397.397 690.165 396.791V345.806C690.165 345.2 689.924 344.62 689.496 344.192C689.067 343.763 688.487 343.523 687.881 343.522H482.344Z" fill="#E6E6E6"/>
<path d="M545.908 360.361C545.201 360.361 544.523 360.642 544.024 361.141C543.524 361.641 543.243 362.319 543.243 363.025C543.243 363.732 543.524 364.41 544.024 364.909C544.523 365.409 545.201 365.69 545.908 365.69H671.513C672.219 365.717 672.907 365.462 673.426 364.982C673.944 364.502 674.251 363.835 674.278 363.129C674.305 362.423 674.05 361.734 673.57 361.216C673.09 360.697 672.423 360.391 671.717 360.364C671.678 360.362 671.639 360.362 671.6 360.362H545.908L545.908 360.361Z" fill="#E6E6E6"/>
<path d="M545.908 376.345C545.201 376.345 544.523 376.625 544.024 377.125C543.524 377.625 543.243 378.303 543.243 379.009C543.243 379.716 543.524 380.394 544.024 380.893C544.523 381.393 545.201 381.674 545.908 381.674H671.513C672.219 381.701 672.907 381.446 673.426 380.966C673.944 380.486 674.251 379.819 674.278 379.113C674.305 378.406 674.05 377.718 673.57 377.2C673.09 376.681 672.423 376.375 671.717 376.348C671.678 376.346 671.639 376.346 671.6 376.346H545.908L545.908 376.345Z" fill="#E6E6E6"/>
<path d="M687.881 485.576H482.344C481.335 485.575 480.368 485.174 479.654 484.46C478.94 483.746 478.539 482.779 478.538 481.77V430.786C478.539 429.777 478.941 428.81 479.654 428.096C480.368 427.383 481.335 426.981 482.344 426.98H687.881C688.89 426.981 689.857 427.383 690.571 428.096C691.284 428.81 691.686 429.777 691.687 430.786V481.771C691.685 482.78 691.284 483.747 690.57 484.46C689.857 485.173 688.89 485.575 687.881 485.576V485.576ZM482.344 428.502C481.738 428.502 481.158 428.743 480.73 429.172C480.301 429.6 480.061 430.18 480.06 430.786V481.771C480.061 482.377 480.301 482.957 480.73 483.385C481.158 483.814 481.738 484.054 482.344 484.055H687.881C688.487 484.054 689.067 483.814 689.496 483.385C689.924 482.957 690.165 482.377 690.165 481.771V430.786C690.165 430.18 689.924 429.6 689.496 429.172C689.067 428.743 688.487 428.502 687.881 428.502H482.344Z" fill="#E6E6E6"/>
<path d="M545.908 445.617C545.201 445.617 544.523 445.898 544.024 446.398C543.524 446.897 543.243 447.575 543.243 448.282C543.243 448.988 543.524 449.666 544.024 450.166C544.523 450.665 545.201 450.946 545.908 450.946H671.513C672.21 450.942 672.877 450.666 673.372 450.176C673.867 449.686 674.151 449.021 674.162 448.325C674.174 447.628 673.912 446.955 673.433 446.449C672.954 445.943 672.296 445.645 671.6 445.618H545.908V445.617Z" fill="#E6E6E6"/>
<path d="M545.908 461.605C545.201 461.605 544.523 461.886 544.024 462.385C543.524 462.885 543.243 463.563 543.243 464.269C543.243 464.976 543.524 465.654 544.024 466.154C544.523 466.653 545.201 466.934 545.908 466.934H671.513C672.21 466.93 672.877 466.653 673.372 466.164C673.867 465.674 674.151 465.009 674.162 464.313C674.174 463.616 673.912 462.943 673.433 462.437C672.954 461.931 672.296 461.633 671.6 461.606H545.908V461.605Z" fill="#E6E6E6"/>
<path d="M687.881 570.834H482.344C481.335 570.833 480.368 570.431 479.654 569.718C478.94 569.004 478.539 568.037 478.538 567.028V516.044C478.539 515.035 478.941 514.067 479.654 513.354C480.368 512.641 481.335 512.239 482.344 512.238H687.881C688.89 512.239 689.857 512.641 690.571 513.354C691.284 514.067 691.686 515.035 691.687 516.044V567.029C691.686 568.038 691.284 569.005 690.571 569.719C689.857 570.432 688.89 570.834 687.881 570.835V570.834ZM482.344 513.76C481.738 513.76 481.158 514.001 480.73 514.429C480.301 514.858 480.061 515.438 480.06 516.044V567.029C480.061 567.634 480.301 568.215 480.73 568.643C481.158 569.071 481.738 569.312 482.344 569.313H687.881C688.487 569.312 689.067 569.071 689.496 568.643C689.924 568.215 690.165 567.634 690.165 567.029V516.044C690.165 515.438 689.924 514.858 689.496 514.429C689.067 514.001 688.487 513.76 687.881 513.76H482.344Z" fill="#E6E6E6"/>
<path d="M545.908 530.878C545.201 530.878 544.523 531.159 544.024 531.658C543.524 532.158 543.243 532.836 543.243 533.542C543.243 534.249 543.524 534.927 544.024 535.427C544.523 535.926 545.201 536.207 545.908 536.207H671.513C671.863 536.22 672.212 536.165 672.54 536.043C672.868 535.922 673.169 535.737 673.426 535.499C673.683 535.261 673.89 534.975 674.036 534.657C674.182 534.339 674.265 533.996 674.278 533.646C674.291 533.296 674.236 532.947 674.114 532.619C673.993 532.291 673.808 531.99 673.57 531.733C673.332 531.476 673.046 531.269 672.728 531.123C672.41 530.976 672.067 530.894 671.717 530.881C671.678 530.879 671.639 530.879 671.6 530.879H545.908L545.908 530.878Z" fill="#E6E6E6"/>
<path d="M545.908 546.865C545.201 546.865 544.523 547.146 544.024 547.645C543.524 548.145 543.243 548.823 543.243 549.529C543.243 550.236 543.524 550.914 544.024 551.413C544.523 551.913 545.201 552.194 545.908 552.194H671.513C671.863 552.207 672.212 552.152 672.54 552.03C672.868 551.909 673.169 551.724 673.426 551.486C673.683 551.248 673.89 550.962 674.036 550.644C674.182 550.326 674.265 549.982 674.278 549.633C674.291 549.283 674.236 548.934 674.114 548.606C673.993 548.278 673.808 547.977 673.57 547.72C673.332 547.463 673.046 547.256 672.728 547.109C672.41 546.963 672.067 546.881 671.717 546.868C671.678 546.866 671.639 546.866 671.6 546.866H545.908L545.908 546.865Z" fill="#E6E6E6"/>
<path d="M877.479 712.573H138.938C137.867 712.573 137 712.105 137 711.528C137 710.951 137.868 710.483 138.938 710.483H877.479C878.549 710.483 879.417 710.951 879.417 711.528C879.417 712.105 878.55 712.573 877.479 712.573Z" fill="#E6E6E6"/>
<path d="M846.201 671.808C843.046 672.917 839.658 673.195 836.364 672.615C833.07 672.034 829.981 670.616 827.395 668.495C820.808 662.967 818.743 653.859 817.063 645.425L812.093 620.48L822.498 627.645C829.981 632.797 837.632 638.115 842.814 645.578C847.996 653.041 850.257 663.229 846.094 671.304" fill="#E6E6E6"/>
<path d="M844.594 703.745C845.904 694.203 847.251 684.539 846.332 674.896C845.516 666.331 842.903 657.966 837.583 651.107C834.759 647.473 831.324 644.36 827.43 641.907C826.415 641.266 825.48 642.875 826.491 643.513C833.228 647.771 838.439 654.058 841.372 661.469C844.612 669.71 845.132 678.693 844.572 687.446C844.234 692.74 843.519 697.999 842.798 703.251C842.741 703.488 842.777 703.739 842.898 703.951C843.018 704.163 843.215 704.322 843.448 704.395C843.686 704.459 843.939 704.426 844.154 704.305C844.368 704.183 844.525 703.982 844.592 703.745H844.594Z" fill="#F2F2F2"/>
<path d="M835.167 688.435C833.814 690.492 831.954 692.165 829.766 693.295C827.578 694.424 825.136 694.971 822.676 694.882C816.353 694.582 811.081 690.169 806.336 685.982L792.301 673.587L801.59 673.143C808.27 672.823 815.123 672.525 821.49 674.585C827.857 676.645 833.721 681.603 834.884 688.185" fill="#E6E6E6"/>
<path d="M848.295 709.23C841.995 698.074 834.677 685.675 821.61 681.712C817.977 680.614 814.167 680.22 810.386 680.553C809.194 680.653 809.492 682.493 810.686 682.39C817.024 681.864 823.35 683.537 828.598 687.129C833.649 690.567 837.581 695.346 840.909 700.415C842.948 703.515 844.774 706.756 846.6 709.988C847.18 711.02 848.886 710.275 848.295 709.23Z" fill="#F2F2F2"/>
<path d="M507.986 386.971C516.815 386.971 523.972 379.814 523.972 370.985C523.972 362.156 516.815 354.999 507.986 354.999C499.157 354.999 492 362.156 492 370.985C492 379.814 499.157 386.971 507.986 386.971Z" fill="#FF0000"/>
<path d="M500.333 367.999C500.149 367.999 500 369.192 500 370.663C500 372.134 500.149 373.328 500.333 373.328H516.052C516.236 373.352 516.388 372.179 516.391 370.708C516.493 369.792 516.381 368.865 516.063 368H500.333V367.999Z" fill="#E6E6E6"/>
<path d="M507.986 472.264C516.815 472.264 523.972 465.107 523.972 456.278C523.972 447.449 516.815 440.292 507.986 440.292C499.157 440.292 492 447.449 492 456.278C492 465.107 499.157 472.264 507.986 472.264Z" fill="#FF0000"/>
<path d="M500.333 453.292C500.149 453.292 500 454.485 500 455.956C500 457.427 500.149 458.621 500.333 458.621H516.052C516.236 458.645 516.388 457.472 516.391 456.001C516.493 455.085 516.381 454.158 516.063 453.293H500.333V453.292Z" fill="#E6E6E6"/>
<path d="M507.986 557.522C516.815 557.522 523.972 550.365 523.972 541.536C523.972 532.707 516.815 525.55 507.986 525.55C499.157 525.55 492 532.707 492 541.536C492 550.365 499.157 557.522 507.986 557.522Z" fill="#FF0000"/>
<path d="M500.333 538.55C500.149 538.55 500 539.743 500 541.214C500 542.685 500.149 543.879 500.333 543.879H516.052C516.236 543.903 516.388 542.73 516.391 541.259C516.493 540.343 516.381 539.416 516.063 538.551H500.333V538.55Z" fill="#E6E6E6"/>
<path d="M561.705 173.612L556.048 179.269L603.424 226.645L609.081 220.989L561.705 173.612Z" fill="white"/>
<path d="M609.081 179.269L603.425 173.613L556.048 220.989L561.705 226.646L609.081 179.269Z" fill="white"/>
<path d="M227.259 456.135C228.645 455.645 229.907 454.856 230.955 453.825C232.003 452.795 232.812 451.547 233.326 450.169C233.84 448.792 234.045 447.318 233.928 445.853C233.811 444.388 233.373 442.966 232.647 441.688L256.212 414.824L237.817 412.286L218.259 438.185C216.193 439.548 214.698 441.621 214.058 444.012C213.418 446.403 213.677 448.945 214.787 451.158C215.896 453.37 217.778 455.099 220.077 456.016C222.376 456.934 224.932 456.976 227.259 456.135V456.135Z" fill="#9F616A"/>
<path d="M255.679 694.215L239.244 694.214L231.425 630.82L255.682 630.821L255.679 694.215Z" fill="#9F616A"/>
<path d="M259.871 710.147L206.876 710.145V709.474C206.876 704.004 209.05 698.758 212.918 694.889C216.786 691.021 222.032 688.848 227.503 688.848H227.504L259.872 688.849L259.871 710.147Z" fill="#2F2E41"/>
<path d="M341.713 680.461L326.017 685.334L299.751 627.11L322.917 619.918L341.713 680.461Z" fill="#9F616A"/>
<path d="M350.441 694.433L299.829 710.147L299.63 709.506C298.008 704.282 298.528 698.627 301.075 693.786C303.623 688.945 307.988 685.313 313.213 683.691L313.214 683.69L344.126 674.093L350.441 694.433Z" fill="#2F2E41"/>
<path d="M243.093 401.943L218.752 429.82L237.808 431.535L243.093 401.943Z" fill="#E6E6E6"/>
<path d="M233.582 437.876C233.582 437.876 225.127 442.103 224.07 461.127C223.013 480.151 227.241 529.827 227.241 529.827C227.241 529.827 223.014 552.021 227.241 572.101C231.468 592.181 223.014 665.101 228.298 665.101C233.582 665.101 261.06 668.272 262.117 665.101C263.174 661.93 264.231 614.372 264.231 614.372C264.231 614.372 272.686 590.064 264.231 575.272C264.231 575.272 293.752 626.82 312.846 666.161C317.025 674.771 348.779 665.104 343.495 655.592C338.211 646.08 325.529 602.749 325.529 602.749C325.529 602.749 316.017 571.043 299.108 557.304L307.563 489.665C307.563 489.665 325.53 444.22 314.963 437.879C304.396 431.538 233.582 437.876 233.582 437.876Z" fill="#2F2E41"/>
<path d="M265.287 265.607C280.463 265.607 292.765 253.305 292.765 238.129C292.765 222.953 280.463 210.651 265.287 210.651C250.111 210.651 237.809 222.953 237.809 238.129C237.809 253.305 250.111 265.607 265.287 265.607Z" fill="#A0616A"/>
<path d="M295.936 267.721L261.776 287.801C261.776 287.801 248.696 295.167 243.81 307.881C238.602 321.431 241.629 340.509 243.81 344.871C248.037 353.326 242.037 374.463 242.037 374.463L236.753 423.078C236.753 423.078 217.73 441.044 232.526 443.158C247.322 445.272 273.743 442.101 289.596 443.158C305.449 444.215 323.415 446.329 318.131 435.758C312.847 425.187 306.506 417.791 312.847 396.658C317.809 380.118 317.594 318.275 317.266 292.158C317.221 288.572 316.259 285.056 314.472 281.946C312.684 278.837 310.131 276.236 307.055 274.391L295.936 267.721Z" fill="#E5E5E5"/>
<path opacity="0.1" d="M280.616 301.013L283.786 365.481L253.06 427.704L247.849 425.721L279.555 367.594L280.616 301.013Z" fill="black"/>
<path opacity="0.1" d="M315.488 379.219V371.819L279.559 431.005L315.488 379.219Z" fill="black"/>
<path d="M245.785 212.674L241.246 210.858C241.246 210.858 250.746 200.401 263.959 201.31L260.242 197.218C260.242 197.218 269.327 193.581 277.587 203.128C281.929 208.147 286.952 214.047 290.087 220.692H294.952L292.922 225.163L300.028 229.634L292.734 228.834C293.425 232.694 293.188 236.663 292.044 240.413L292.244 243.947C292.244 243.947 283.785 230.858 283.785 229.042V233.589C283.785 233.589 279.242 229.497 279.242 226.769L276.764 229.952L275.525 224.952L260.245 229.952L262.721 225.858L253.221 227.222L256.938 222.222C256.938 222.222 246.201 228.132 245.788 233.134C245.375 238.136 240.007 244.5 240.007 244.5L237.529 239.953C237.529 239.953 233.813 219.494 245.785 212.674Z" fill="#2F2E41"/>
<path d="M263.562 459.125C264.839 458.397 265.941 457.397 266.789 456.196C267.638 454.996 268.213 453.624 268.474 452.177C268.735 450.731 268.676 449.244 268.3 447.823C267.925 446.402 267.242 445.08 266.3 443.951L284.723 413.331L266.169 414.099L251.519 443.058C249.727 444.766 248.624 447.071 248.419 449.538C248.213 452.004 248.92 454.461 250.404 456.441C251.889 458.422 254.048 459.789 256.473 460.283C258.899 460.778 261.421 460.366 263.562 459.125V459.125Z" fill="#9F616A"/>
<path d="M305.449 281.462L313.375 279.877C313.375 279.877 337.154 297.315 329.756 332.191C322.358 367.067 289.596 419.91 289.596 419.91C289.596 419.91 282.196 429.422 280.084 431.535C277.972 433.648 273.743 431.535 275.857 434.706C277.971 437.877 272.686 439.99 272.686 439.99C272.686 439.99 249.435 439.99 251.549 431.535C253.663 423.08 289.596 362.835 289.596 362.835L284.312 306.822C284.312 306.822 280.083 279.348 305.449 281.462Z" fill="#E5E5E5"/>
</svg>
